<svg width="150" height="150" viewBox="0 0 150 150" fill="none" xmlns="http://www.w3.org/2000/svg">
<path fill-rule="evenodd" clip-rule="evenodd" d="M58.9156 28.4875C35.3843 43.6 22.3114 61.1906 19.6968 81.2594C15.6249 112.5 43.5624 127.791 57.7187 114.053C71.8749 100.316 63.3906 82.875 53.1406 78.1062C42.8906 73.3375 36.6218 75 37.7156 68.6281C38.8093 62.2562 53.3906 44.5968 66.2031 36.3719C66.6564 35.9853 66.9456 35.4407 67.0118 34.8486C67.078 34.2565 66.9162 33.6614 66.5593 33.1844L63.3906 29.0625C62.0156 27.275 60.6968 27.3437 58.9156 28.4843M120.872 28.4875C97.3406 43.6 84.2676 61.1906 81.6531 81.2594C77.5781 112.5 105.516 127.791 119.672 114.053C133.828 100.316 125.344 82.875 115.091 78.1062C104.837 73.3375 98.5718 75 99.6656 68.6281C100.759 62.2562 115.344 44.5968 128.156 36.3719C128.609 35.9849 128.898 35.44 128.963 34.848C129.029 34.2559 128.867 33.661 128.509 33.1844L125.344 29.0625C123.969 27.275 122.65 27.3437 120.872 28.4843" fill="#2A566A"/>
</svg>
